<?xml version="1.0" encoding="utf-8"?>
<!-- Generator: Adobe Illustrator 19.1.0, SVG Export Plug-In . SVG Version: 6.00 Build 0)  -->
<svg version="1.1" id="Layer_1" xmlns="http://www.w3.org/2000/svg" xmlns:xlink="http://www.w3.org/1999/xlink" x="0px" y="0px"
	 viewBox="0 0 457.9 395.2" style="enable-background:new 0 0 457.9 395.2;" xml:space="preserve">
<style type="text/css">
	.st0{fill:#FF0000;}
	.st1{fill:#8A1387;}
	.st2{fill:#51006A;}
	.st3{fill:#A72E95;}
	.st4{fill:#DC248E;}
	.st5{fill:#6B167E;}
	.st6{fill:#650074;}
	.st7{fill:#FDA761;}
	.st8{fill:#FEBE8A;}
	.st9{fill:#9F2181;}
	.st10{fill:#A42183;}
	.st11{fill:#FE4E17;}
	.st12{fill:#F52263;}
	.st13{fill:#F5424C;}
	.st14{fill:#FF424C;}
	.st15{fill:#F5014C;}
	.st16{fill:#F02565;}
	.st17{fill:#FE5225;}
	.st18{fill:#FE633B;}
	.st19{fill:#EB3062;}
	.st20{fill:#D73A88;}
	.st21{fill:#CD248E;}
	.st22{fill:#E13090;}
	.st23{fill:#E8277E;}
	.st24{fill:#EB016D;}
	.st25{fill:#F2437B;}
	.st26{fill:#FE6D3B;}
	.st27{fill:#FF7917;}
	.st28{fill:#FF8C43;}
	.st29{fill:#FEAF71;}
	.st30{fill:#FD9A4A;}
	.st31{fill:#FF690B;}
	.st32{fill:#FA3049;}
	.st33{fill:#F03049;}
	.st34{fill:#EB3049;}
	.st35{fill:#D23081;}
	.st36{fill:#A73A7E;}
	.st37{fill:#AE3A7E;}
	.st38{fill:#CF2E92;}
	.st39{fill:#ED1872;}
	.st40{fill:#E61874;}
	.st41{fill:#ED0179;}
	.st42{fill:#FE6A3B;}
	.st43{fill:#FF8F4F;}
	.st44{fill:#FDA965;}
	.st45{fill:#FDCE93;}
	.st46{fill:#FF893E;}
	.st47{fill:#FF7A26;}
	.st48{fill:#FE5142;}
	.st49{fill:#CA3D77;}
	.st50{fill:#B63A7E;}
	.st51{fill:#6D1687;}
	.st52{fill:#A23B83;}
	.st53{fill:#95378B;}
	.st54{fill:#7E138B;}
	.st55{fill:#F12F7C;}
	.st56{fill:#E11572;}
	.st57{fill:#EB1F6F;}
	.st58{fill:#FE4C10;}
	.st59{fill:#FF9052;}
	.st60{fill:#FEC190;}
	.st61{fill:#FDD29B;}
	.st62{fill:#FEE2B2;}
	.st63{fill:#FDD39E;}
	.st64{fill:#FF8030;}
	.st65{fill:#FF6B0D;}
	.st66{fill:#DE2177;}
	.st67{fill:#C03574;}
	.st68{fill:#AE357E;}
	.st69{fill:#620177;}
	.st70{fill:#510A65;}
	.st71{fill:#490062;}
	.st72{fill:#580F72;}
	.st73{fill:#790186;}
	.st74{fill:#6A1681;}
	.st75{fill:#E81E81;}
	.st76{fill:#FEB982;}
	.st77{fill:#FF924D;}
	.st78{fill:#720186;}
	.st79{fill:#380053;}
	.st80{fill:#601778;}
	.st81{fill:#741687;}
</style>
<g>
	<path class="st0" d="M457.9,181.6l-12.5-43.3c0,0,0,0,0,0l-29-35.8l-17.8-38.7c0,0,0,0,0,0l-42.1-17.2l-42.4-34c0,0,0,0,0,0
		l-53.5-1.4L208.4,0l0,0l0,0l0,0c0,0,0,0,0,0l-42.3,16.5L125,21.6c0,0,0,0,0,0L97.2,46.9L63,64.6c0,0,0,0,0,0l-20.5,36.8l-30.2,28.5
		c0,0,0,0,0,0L0,176.8c0,0,0,0,0,0c0,0,0,0,0,0c0,0,0,0,0,0l0,0l7.3,46.1c0,0,0,0,0,0l44.1,28.3c0,0,0,0,0,0l56.5,6.2l40.2,31.7
		c0,0,0,0,0,0l49.7,6.3c0,0,0,0,0,0c0,0,0,0,0,0l36.6-20.1l14.9,29.9l59.3,90.2c0,0,0,0,0,0c0,0,0,0,0,0l13.9-22.1c0,0,0,0,0,0
		l-17.8-53.3l49.4,1.3l0,0c0,0,0,0,0,0l49.4-26.7c0,0,0,0,0,0l18.8-48.6l25.9-20c0,0,0,0,0,0L457.9,181.6
		C457.9,181.6,457.9,181.6,457.9,181.6z"/>
	<polygon class="st1" points="457.9,181.6 421,179.4 392,139 445.4,138.3 	"/>
	<polygon class="st2" points="308.8,395.2 249.5,305.1 304.8,319.9 	"/>
	<polygon class="st3" points="416.4,102.5 445.4,138.3 392,139 	"/>
	<polygon class="st4" points="392,139 351.3,95.4 416.4,102.5 	"/>
	<g>
		<polygon class="st5" points="304.8,319.9 265.3,258.2 322,260.9 		"/>
		<polygon class="st6" points="304.8,319.9 353.2,287.1 322,260.9 		"/>
	</g>
	<polygon class="st7" points="86.1,108.8 114,150.2 51.5,143.4 	"/>
	<polygon class="st8" points="51.5,143.4 42.6,101.4 86.1,108.8 	"/>
	<polygon class="st9" points="322,260.9 314.2,189.4 362,234.5 	"/>
	<polygon class="st10" points="322,260.9 265.3,258.2 275.7,206.4 322,260.9 322,260.9 322,260.9 322,260.9 	"/>
	<polygon class="st11" points="221.1,44.2 223.2,83.8 177.7,60.3 	"/>
	<polygon class="st12" points="264.9,108 223.2,83.8 252.9,50.9 	"/>
	<polygon class="st13" points="179,194.6 167.1,148.8 210.8,121.7 227.2,167.9 	"/>
	<polygon class="st14" points="179,194.6 120.1,198.5 167.1,148.8 	"/>
	<polygon class="st15" points="210.8,121.7 223.2,83.8 264.9,108 	"/>
	<polygon class="st16" points="264.9,108 282.4,147.1 210.8,121.7 	"/>
	<polygon class="st17" points="210.8,121.7 172,105.6 223.2,83.8 	"/>
	<polygon class="st18" points="172,105.6 210.8,121.7 167.1,148.8 	"/>
	<polygon class="st19" points="227.2,167.9 210.8,121.7 282.4,147.1 	"/>
	<polygon class="st20" points="282.4,147.1 275.7,206.4 227.2,167.9 	"/>
	<polygon class="st21" points="282.4,147.1 314.2,189.4 275.7,206.4 	"/>
	<polygon class="st20" points="314.2,189.4 282.4,147.1 341.1,154.7 	"/>
	<polygon class="st22" points="341.1,154.7 282.4,147.1 313.1,106.8 351.3,95.4 	"/>
	<polygon class="st23" points="282.4,147.1 264.9,108 313.1,106.8 	"/>
	<polygon class="st24" points="264.9,108 301.1,48.5 313.1,106.8 	"/>
	<polygon class="st25" points="264.9,108 252.9,50.9 301.1,48.5 	"/>
	<polygon class="st26" points="177.7,60.3 223.2,83.8 172,105.6 	"/>
	<polygon class="st27" points="167.1,148.8 114,150.2 134.6,111.2 172,105.6 	"/>
	<polygon class="st28" points="134.6,111.2 125.4,68.3 172,105.6 	"/>
	<polygon class="st29" points="134.6,111.2 86.1,108.8 125.4,68.3 	"/>
	<polygon class="st30" points="134.6,111.2 114,150.2 86.1,108.8 	"/>
	<polygon class="st31" points="167.1,148.8 120.1,198.5 114,150.2 	"/>
	<polygon class="st32" points="179,194.6 164.3,242.9 120.1,198.5 	"/>
	<polygon class="st33" points="179,194.6 217.7,239.4 164.3,242.9 	"/>
	<polygon class="st34" points="179,194.6 227.2,167.9 217.7,239.4 	"/>
	<polygon class="st35" points="227.2,167.9 275.7,206.4 217.7,239.4 	"/>
	<polygon class="st36" points="314.2,189.4 322,260.9 275.7,206.4 	"/>
	<polygon class="st37" points="314.2,189.4 341.1,154.7 362,234.5 	"/>
	<polygon class="st38" points="351.3,95.4 392,139 341.1,154.7 	"/>
	<polygon class="st39" points="351.3,95.4 313.1,106.8 301.1,48.5 356.5,46.7 	"/>
	<polygon class="st40" points="351.3,95.4 301.1,48.5 356.5,46.7 	"/>
	<polygon class="st41" points="252.9,50.9 260.5,11.3 301.1,48.5 	"/>
	<polygon class="st42" points="223.2,83.8 221.1,44.2 252.9,50.9 	"/>
	<polygon class="st26" points="177.7,60.3 208.4,0 221.1,44.2 	"/>
	<polygon class="st43" points="172,105.6 125.4,68.3 177.7,60.3 	"/>
	<polygon class="st44" points="125.4,68.3 166.1,16.5 177.7,60.3 	"/>
	<polygon class="st45" points="86.1,108.8 63,64.6 125.4,68.3 	"/>
	<polygon class="st30" points="114,150.2 59.4,193.5 51.5,143.4 	"/>
	<polygon class="st46" points="114,150.2 120.1,198.5 59.4,193.5 	"/>
	<polygon class="st47" points="120.1,198.5 108,257.3 59.4,193.5 	"/>
	<polygon class="st48" points="120.1,198.5 164.3,242.9 108,257.3 	"/>
	<polygon class="st49" points="217.7,239.4 197.9,295.3 164.3,242.9 	"/>
	<polygon class="st50" points="275.7,206.4 265.3,258.2 217.7,239.4 	"/>
	<polygon class="st51" points="322,260.9 322,260.9 322,260.9 322,260.9 322,260.9 362,234.5 353.2,287.1 	"/>
	<polygon class="st52" points="341.1,154.7 392,139 382.4,188.9 382.4,188.9 382.4,188.9 362,234.5 	"/>
	<polygon class="st53" points="382.4,188.9 392,139 421,179.4 	"/>
	<polygon class="st54" points="421,179.4 422.4,245.8 382.4,188.9 	"/>
	<polygon class="st55" points="356.5,46.7 398.6,63.8 351.3,95.4 	"/>
	<polygon class="st56" points="301.1,48.5 314,12.7 356.5,46.7 	"/>
	<polygon class="st57" points="301.1,48.5 260.5,11.3 314,12.7 	"/>
	<polygon class="st58" points="252.9,50.9 221.1,44.2 208.4,0 260.5,11.3 	"/>
	<polygon class="st59" points="177.7,60.3 166.1,16.5 208.4,0 	"/>
	<polygon class="st60" points="125.4,68.3 125,21.6 166.1,16.5 	"/>
	<polygon class="st61" points="125.4,68.3 97.2,46.9 125,21.6 	"/>
	<polygon class="st62" points="125.4,68.3 63,64.6 97.2,46.9 	"/>
	<polygon class="st63" points="86.1,108.8 42.6,101.4 63,64.6 	"/>
	<polygon class="st60" points="51.5,143.4 12.3,129.8 42.6,101.4 	"/>
	<polygon class="st44" points="51.5,143.4 59.4,193.5 0,176.8 	"/>
	<polygon class="st64" points="51.5,251.1 7.3,222.9 59.4,193.5 	"/>
	<polygon class="st65" points="59.4,193.5 108,257.3 51.5,251.1 	"/>
	<polygon class="st66" points="164.3,242.9 148.2,289 108,257.3 	"/>
	<polygon class="st67" points="164.3,242.9 197.9,295.3 148.2,289 	"/>
	<polygon class="st68" points="217.7,239.4 265.3,258.2 234.6,275.2 197.9,295.3 	"/>
	<polygon class="st69" points="304.8,319.9 249.5,305.1 265.3,258.2 	"/>
	<polygon class="st70" points="353.2,287.1 354.2,321.2 304.8,319.9 	"/>
	<polygon class="st71" points="353.2,287.1 403.6,294.4 354.2,321.2 	"/>
	<polygon class="st72" points="353.2,287.1 362,234.5 403.6,294.4 	"/>
	<polygon class="st73" points="382.4,188.9 422.4,245.8 362,234.5 	"/>
	<polygon class="st74" points="421,179.4 448.2,225.9 422.4,245.8 	"/>
	<polygon class="st75" points="416.4,102.5 351.3,95.4 398.6,63.8 	"/>
	<polygon class="st76" points="12.3,129.8 51.5,143.4 0,176.8 	"/>
	<polygon class="st77" points="0,176.8 59.4,193.5 7.3,222.9 	"/>
	<polygon class="st78" points="234.6,275.2 265.3,258.2 249.5,305.1 234.6,275.2 	"/>
	<polygon class="st79" points="322.6,373.2 308.8,395.2 304.8,319.9 	"/>
	<polygon class="st80" points="403.6,294.4 362,234.5 422.4,245.8 	"/>
	<polygon class="st81" points="448.2,225.9 421,179.4 457.9,181.6 	"/>
</g>
</svg>
